# xmcd
#
# Track frame offsets: 
#        150
#        15626
#        36080
#        47484
#        71968
#        90762
#        109320
#        124278
#        152596
#        169201
#        189789
#        213345
#        226729
#        247345
#        266469
#        292519
#
# Disc length: 4116 seconds
#
# Revision: 0
# Processed by: cddbd v1.5.2PL0 Copyright (c) Steve Scherf et al.
# Submitted via: ExactAudioCopy v0.99pb3
#
DISCID=d0101210
DTITLE=Various Artist - Maximum MoJo D2
DYEAR=2007
DGENRE=Blues
TTITLE0=Kenny 'Blues Boss' Wayne/Blackberry Wine
TTITLE1=Paul Oscher/Juke Joint
TTITLE2=Harrison Kennedy/High Country Blues
TTITLE3=Fruteland Jackson/Blues 2.0
TTITLE4=Mark Hummel/Big Easy (Ain't Easy No More)
TTITLE5=Willie 'Big Eyes' Smith/Going Away Baby
TTITLE6=Sharrie Williams/I'm Here to Stay
TTITLE7=Pinetop Perkins with Snooky Pryor/Pinetop's Grinderman Blues
TTITLE8=Johnny Laws/Ain't that Loving You Baby
TTITLE9=Mel Brown/Make Love to Your Mind
TTITLE10=Julian Fauth/Cobalt
TTITLE11=Diana Braithwaite and Chris Whiteley/Morning Sun
TTITLE12=Fruteland Jackson/Blues over Baghdad
TTITLE13=Chris Whiteley with Diana Braithwaite/Morning, Noon and Night
TTITLE14=Sam Myers/Sweet Little Woman from Maine
TTITLE15=Snooky Pryor with Mel Brown/Work 'til my Days are Done
EXTD=
EXTT0=
EXTT1=
EXTT2=
EXTT3=
EXTT4=
EXTT5=
EXTT6=
EXTT7=
EXTT8=
EXTT9=
EXTT10=
EXTT11=
EXTT12=
EXTT13=
EXTT14=
EXTT15=
PLAYORDER=
